<?xml version="1.0" encoding="iso-8859-1"?>
<!-- Generator: Adobe Illustrator 19.0.0, SVG Export Plug-In . SVG Version: 6.00 Build 0)  -->
<svg version="1.1" id="Layer_1" xmlns="http://www.w3.org/2000/svg" xmlns:xlink="http://www.w3.org/1999/xlink" x="0px" y="0px"
	 viewBox="0 0 512 512" style="enable-background:new 0 0 512 512;" xml:space="preserve">
<circle style="fill:#334D5C;" cx="256" cy="256" r="256"/>
<path style="opacity:0.1;enable-background:new    ;" d="M507.643,302.875L402.64,197.92h-9.173l-88.587-88.587h-97.76v133.44
	h-97.813v159.893l106.144,106.107C228.661,510.875,242.197,512,256,512C381.365,512,485.611,421.861,507.643,302.875z"/>
<rect x="109.333" y="253.445" style="fill:#CE412D;" width="97.776" height="149.221"/>
<rect x="207.109" y="120" style="fill:#31978C;" width="97.776" height="282.667"/>
<rect x="304.907" y="208.533" style="fill:#DC8744;" width="97.776" height="194.133"/>
<rect x="109.333" y="242.779" style="fill:#E56353;" width="97.776" height="149.221"/>
<rect x="207.109" y="109.333" style="fill:#44C4A1;" width="97.776" height="282.667"/>
<rect x="304.907" y="197.867" style="fill:#FCD462;" width="97.776" height="194.133"/>
<g>
	<path style="fill:#FFFFFF;" d="M243.28,219.237h25.445v62.859h-13.488V231.2H243.28V219.237z"/>
	<path style="fill:#FFFFFF;" d="M358.544,288.741c1.589-2.245,2.384-4.421,2.384-6.523c0-2.096-0.688-3.851-2.069-5.264
		c-1.376-1.408-3.147-2.107-5.307-2.107c-3.952,0-7.701,2.816-11.243,8.453l-11.243-6.661c2.944-4.555,6.16-8,9.669-10.341
		c3.504-2.336,7.979-3.504,13.397-3.504c5.424,0,10.192,1.728,14.299,5.173c4.107,3.445,6.16,8.139,6.16,14.075
		c0,3.232-0.827,6.336-2.475,9.307c-1.653,2.965-4.693,6.757-9.136,11.371l-11.328,11.781h24.821v12.587h-44.336v-10.427
		l18.432-18.891C354.304,294.005,356.955,290.987,358.544,288.741z"/>
	<path style="fill:#FFFFFF;" d="M139.253,297.563v-11.957h38.485v9.712l-12.859,14.656c5.035,0.843,8.928,2.949,11.685,6.336
		c2.757,3.387,4.133,7.296,4.133,11.739c0,6.592-2.229,11.76-6.699,15.509c-4.464,3.749-10.181,5.621-17.131,5.621
		c-6.955,0-14-2.459-21.136-7.371l5.76-11.152c5.936,4.192,11.243,6.293,15.92,6.293c2.816,0,5.136-0.688,6.965-2.064
		c1.829-1.381,2.747-3.376,2.747-5.984c0-2.603-1.056-4.677-3.147-6.208c-2.101-1.52-5.008-2.288-8.725-2.288
		c-1.973,0-4.763,0.571-8.363,1.712v-10.347l12.053-14.203h-19.691V297.563z"/>
</g>
<g>
</g>
<g>
</g>
<g>
</g>
<g>
</g>
<g>
</g>
<g>
</g>
<g>
</g>
<g>
</g>
<g>
</g>
<g>
</g>
<g>
</g>
<g>
</g>
<g>
</g>
<g>
</g>
<g>
</g>
</svg>
